<mxfile host="app.diagrams.net" modified="2024-02-18T20:53:43.589Z" agent="Mozilla/5.0 (Windows NT 10.0; Win64; x64) AppleWebKit/537.36 (KHTML, like Gecko) Chrome/121.0.0.0 Safari/537.36" etag="dTwB8zuwSpuWay0RPVg5" version="23.1.5" type="device">
  <diagram id="C5RBs43oDa-KdzZeNtuy" name="Page-1">
    <mxGraphModel dx="2100" dy="746" grid="1" gridSize="10" guides="1" tooltips="1" connect="1" arrows="1" fold="1" page="1" pageScale="1" pageWidth="827" pageHeight="1169" math="0" shadow="0">
      <root>
        <mxCell id="WIyWlLk6GJQsqaUBKTNV-0" />
        <mxCell id="WIyWlLk6GJQsqaUBKTNV-1" parent="WIyWlLk6GJQsqaUBKTNV-0" />
        <mxCell id="WIyWlLk6GJQsqaUBKTNV-2" value="" style="rounded=0;html=1;jettySize=auto;orthogonalLoop=1;fontSize=11;endArrow=block;endFill=0;endSize=8;strokeWidth=1;shadow=0;labelBackgroundColor=none;edgeStyle=orthogonalEdgeStyle;" parent="WIyWlLk6GJQsqaUBKTNV-1" source="WIyWlLk6GJQsqaUBKTNV-3" edge="1">
          <mxGeometry relative="1" as="geometry">
            <mxPoint x="390" y="170" as="targetPoint" />
          </mxGeometry>
        </mxCell>
        <mxCell id="WIyWlLk6GJQsqaUBKTNV-3" value="KissanystÃ¤vien Tietopankki" style="rounded=1;whiteSpace=wrap;html=1;fontSize=12;glass=0;strokeWidth=1;shadow=0;" parent="WIyWlLk6GJQsqaUBKTNV-1" vertex="1">
          <mxGeometry x="330" y="80" width="120" height="40" as="geometry" />
        </mxCell>
        <mxCell id="HXFygbCVAXjH_BGouXPT-0" value="Kissan terveys" style="rounded=0;whiteSpace=wrap;html=1;" vertex="1" parent="WIyWlLk6GJQsqaUBKTNV-1">
          <mxGeometry x="330" y="170" width="120" height="60" as="geometry" />
        </mxCell>
        <mxCell id="HXFygbCVAXjH_BGouXPT-1" value="Kissan koulutus ja viihde" style="rounded=0;whiteSpace=wrap;html=1;" vertex="1" parent="WIyWlLk6GJQsqaUBKTNV-1">
          <mxGeometry x="490" y="170" width="120" height="60" as="geometry" />
        </mxCell>
        <mxCell id="HXFygbCVAXjH_BGouXPT-2" value="Kissanhoito" style="rounded=0;whiteSpace=wrap;html=1;" vertex="1" parent="WIyWlLk6GJQsqaUBKTNV-1">
          <mxGeometry x="170" y="170" width="120" height="60" as="geometry" />
        </mxCell>
        <mxCell id="HXFygbCVAXjH_BGouXPT-3" value="" style="endArrow=none;html=1;rounded=0;" edge="1" parent="WIyWlLk6GJQsqaUBKTNV-1">
          <mxGeometry width="50" height="50" relative="1" as="geometry">
            <mxPoint x="450" y="99.5" as="sourcePoint" />
            <mxPoint x="550" y="99.5" as="targetPoint" />
          </mxGeometry>
        </mxCell>
        <mxCell id="HXFygbCVAXjH_BGouXPT-4" value="" style="endArrow=none;html=1;rounded=0;exitX=0.5;exitY=0;exitDx=0;exitDy=0;" edge="1" parent="WIyWlLk6GJQsqaUBKTNV-1" source="HXFygbCVAXjH_BGouXPT-1">
          <mxGeometry width="50" height="50" relative="1" as="geometry">
            <mxPoint x="550" y="160" as="sourcePoint" />
            <mxPoint x="550" y="100" as="targetPoint" />
          </mxGeometry>
        </mxCell>
        <mxCell id="HXFygbCVAXjH_BGouXPT-6" value="" style="endArrow=none;html=1;rounded=0;" edge="1" parent="WIyWlLk6GJQsqaUBKTNV-1">
          <mxGeometry width="50" height="50" relative="1" as="geometry">
            <mxPoint x="230" y="100" as="sourcePoint" />
            <mxPoint x="330" y="100" as="targetPoint" />
          </mxGeometry>
        </mxCell>
        <mxCell id="HXFygbCVAXjH_BGouXPT-7" value="" style="endArrow=none;html=1;rounded=0;exitX=0.5;exitY=0;exitDx=0;exitDy=0;" edge="1" parent="WIyWlLk6GJQsqaUBKTNV-1" source="HXFygbCVAXjH_BGouXPT-2">
          <mxGeometry width="50" height="50" relative="1" as="geometry">
            <mxPoint x="230" y="140" as="sourcePoint" />
            <mxPoint x="230" y="100" as="targetPoint" />
          </mxGeometry>
        </mxCell>
        <mxCell id="HXFygbCVAXjH_BGouXPT-8" value="Kissan terveys" style="rounded=0;whiteSpace=wrap;html=1;" vertex="1" parent="WIyWlLk6GJQsqaUBKTNV-1">
          <mxGeometry x="-150" y="310" width="120" height="60" as="geometry" />
        </mxCell>
        <mxCell id="HXFygbCVAXjH_BGouXPT-9" value="Kissan koulutus ja viihde" style="rounded=0;whiteSpace=wrap;html=1;" vertex="1" parent="WIyWlLk6GJQsqaUBKTNV-1">
          <mxGeometry x="10" y="310" width="120" height="60" as="geometry" />
        </mxCell>
        <mxCell id="HXFygbCVAXjH_BGouXPT-10" value="Kissanhoito" style="rounded=0;whiteSpace=wrap;html=1;" vertex="1" parent="WIyWlLk6GJQsqaUBKTNV-1">
          <mxGeometry x="-310" y="310" width="120" height="60" as="geometry" />
        </mxCell>
        <mxCell id="HXFygbCVAXjH_BGouXPT-11" value="Kissan terveys" style="rounded=0;whiteSpace=wrap;html=1;" vertex="1" parent="WIyWlLk6GJQsqaUBKTNV-1">
          <mxGeometry x="330" y="310" width="120" height="60" as="geometry" />
        </mxCell>
        <mxCell id="HXFygbCVAXjH_BGouXPT-12" value="Kissan koulutus ja viihde" style="rounded=0;whiteSpace=wrap;html=1;" vertex="1" parent="WIyWlLk6GJQsqaUBKTNV-1">
          <mxGeometry x="490" y="310" width="120" height="60" as="geometry" />
        </mxCell>
        <mxCell id="HXFygbCVAXjH_BGouXPT-13" value="Kissanhoito" style="rounded=0;whiteSpace=wrap;html=1;" vertex="1" parent="WIyWlLk6GJQsqaUBKTNV-1">
          <mxGeometry x="170" y="310" width="120" height="60" as="geometry" />
        </mxCell>
        <mxCell id="HXFygbCVAXjH_BGouXPT-14" value="Kissan terveys" style="rounded=0;whiteSpace=wrap;html=1;" vertex="1" parent="WIyWlLk6GJQsqaUBKTNV-1">
          <mxGeometry x="810" y="310" width="120" height="60" as="geometry" />
        </mxCell>
        <mxCell id="HXFygbCVAXjH_BGouXPT-15" value="Kissan koulutus ja viihde" style="rounded=0;whiteSpace=wrap;html=1;" vertex="1" parent="WIyWlLk6GJQsqaUBKTNV-1">
          <mxGeometry x="970" y="310" width="120" height="60" as="geometry" />
        </mxCell>
        <mxCell id="HXFygbCVAXjH_BGouXPT-16" value="Kissanhoito" style="rounded=0;whiteSpace=wrap;html=1;" vertex="1" parent="WIyWlLk6GJQsqaUBKTNV-1">
          <mxGeometry x="650" y="310" width="120" height="60" as="geometry" />
        </mxCell>
        <mxCell id="HXFygbCVAXjH_BGouXPT-17" value="" style="endArrow=none;html=1;rounded=0;" edge="1" parent="WIyWlLk6GJQsqaUBKTNV-1">
          <mxGeometry width="50" height="50" relative="1" as="geometry">
            <mxPoint x="-250" y="230" as="sourcePoint" />
            <mxPoint x="240" y="230" as="targetPoint" />
          </mxGeometry>
        </mxCell>
        <mxCell id="HXFygbCVAXjH_BGouXPT-18" value="" style="endArrow=none;html=1;rounded=0;" edge="1" parent="WIyWlLk6GJQsqaUBKTNV-1">
          <mxGeometry width="50" height="50" relative="1" as="geometry">
            <mxPoint x="70" y="310" as="sourcePoint" />
            <mxPoint x="70" y="230" as="targetPoint" />
          </mxGeometry>
        </mxCell>
        <mxCell id="HXFygbCVAXjH_BGouXPT-19" value="" style="endArrow=none;html=1;rounded=0;" edge="1" parent="WIyWlLk6GJQsqaUBKTNV-1">
          <mxGeometry width="50" height="50" relative="1" as="geometry">
            <mxPoint x="-90" y="310" as="sourcePoint" />
            <mxPoint x="-90" y="230" as="targetPoint" />
          </mxGeometry>
        </mxCell>
        <mxCell id="HXFygbCVAXjH_BGouXPT-20" value="" style="endArrow=none;html=1;rounded=0;" edge="1" parent="WIyWlLk6GJQsqaUBKTNV-1">
          <mxGeometry width="50" height="50" relative="1" as="geometry">
            <mxPoint x="-250" y="310" as="sourcePoint" />
            <mxPoint x="-250" y="230" as="targetPoint" />
          </mxGeometry>
        </mxCell>
        <mxCell id="HXFygbCVAXjH_BGouXPT-21" value="" style="endArrow=none;html=1;rounded=0;" edge="1" parent="WIyWlLk6GJQsqaUBKTNV-1">
          <mxGeometry width="50" height="50" relative="1" as="geometry">
            <mxPoint x="390" y="260" as="sourcePoint" />
            <mxPoint x="390" y="230" as="targetPoint" />
          </mxGeometry>
        </mxCell>
        <mxCell id="HXFygbCVAXjH_BGouXPT-24" value="" style="endArrow=none;html=1;rounded=0;" edge="1" parent="WIyWlLk6GJQsqaUBKTNV-1">
          <mxGeometry width="50" height="50" relative="1" as="geometry">
            <mxPoint x="230" y="260" as="sourcePoint" />
            <mxPoint x="390" y="260" as="targetPoint" />
          </mxGeometry>
        </mxCell>
        <mxCell id="HXFygbCVAXjH_BGouXPT-25" value="" style="endArrow=none;html=1;rounded=0;" edge="1" parent="WIyWlLk6GJQsqaUBKTNV-1">
          <mxGeometry width="50" height="50" relative="1" as="geometry">
            <mxPoint x="390" y="260" as="sourcePoint" />
            <mxPoint x="550" y="260" as="targetPoint" />
          </mxGeometry>
        </mxCell>
        <mxCell id="HXFygbCVAXjH_BGouXPT-28" value="" style="endArrow=none;html=1;rounded=0;exitX=0.5;exitY=0;exitDx=0;exitDy=0;" edge="1" parent="WIyWlLk6GJQsqaUBKTNV-1" source="HXFygbCVAXjH_BGouXPT-13">
          <mxGeometry width="50" height="50" relative="1" as="geometry">
            <mxPoint x="180" y="310" as="sourcePoint" />
            <mxPoint x="230" y="260" as="targetPoint" />
          </mxGeometry>
        </mxCell>
        <mxCell id="HXFygbCVAXjH_BGouXPT-29" value="" style="endArrow=none;html=1;rounded=0;exitX=0.5;exitY=0;exitDx=0;exitDy=0;" edge="1" parent="WIyWlLk6GJQsqaUBKTNV-1">
          <mxGeometry width="50" height="50" relative="1" as="geometry">
            <mxPoint x="389.5" y="310" as="sourcePoint" />
            <mxPoint x="389.5" y="260" as="targetPoint" />
          </mxGeometry>
        </mxCell>
        <mxCell id="HXFygbCVAXjH_BGouXPT-30" value="" style="endArrow=none;html=1;rounded=0;exitX=0.5;exitY=0;exitDx=0;exitDy=0;" edge="1" parent="WIyWlLk6GJQsqaUBKTNV-1">
          <mxGeometry width="50" height="50" relative="1" as="geometry">
            <mxPoint x="549.5" y="310" as="sourcePoint" />
            <mxPoint x="549.5" y="260" as="targetPoint" />
          </mxGeometry>
        </mxCell>
        <mxCell id="HXFygbCVAXjH_BGouXPT-34" value="" style="endArrow=none;html=1;rounded=0;" edge="1" parent="WIyWlLk6GJQsqaUBKTNV-1">
          <mxGeometry width="50" height="50" relative="1" as="geometry">
            <mxPoint x="540" y="230" as="sourcePoint" />
            <mxPoint x="1030" y="230" as="targetPoint" />
          </mxGeometry>
        </mxCell>
        <mxCell id="HXFygbCVAXjH_BGouXPT-36" value="" style="endArrow=none;html=1;rounded=0;" edge="1" parent="WIyWlLk6GJQsqaUBKTNV-1">
          <mxGeometry width="50" height="50" relative="1" as="geometry">
            <mxPoint x="709.5" y="310" as="sourcePoint" />
            <mxPoint x="709.5" y="230" as="targetPoint" />
          </mxGeometry>
        </mxCell>
        <mxCell id="HXFygbCVAXjH_BGouXPT-37" value="" style="endArrow=none;html=1;rounded=0;" edge="1" parent="WIyWlLk6GJQsqaUBKTNV-1">
          <mxGeometry width="50" height="50" relative="1" as="geometry">
            <mxPoint x="869.5" y="310" as="sourcePoint" />
            <mxPoint x="869.5" y="230" as="targetPoint" />
          </mxGeometry>
        </mxCell>
        <mxCell id="HXFygbCVAXjH_BGouXPT-38" value="" style="endArrow=none;html=1;rounded=0;" edge="1" parent="WIyWlLk6GJQsqaUBKTNV-1">
          <mxGeometry width="50" height="50" relative="1" as="geometry">
            <mxPoint x="1029.5" y="310" as="sourcePoint" />
            <mxPoint x="1029.5" y="230" as="targetPoint" />
          </mxGeometry>
        </mxCell>
        <mxCell id="HXFygbCVAXjH_BGouXPT-39" value="Instagram" style="rounded=0;whiteSpace=wrap;html=1;" vertex="1" parent="WIyWlLk6GJQsqaUBKTNV-1">
          <mxGeometry x="650" y="80" width="120" height="60" as="geometry" />
        </mxCell>
      </root>
    </mxGraphModel>
  </diagram>
</mxfile>
